HIERARCHY
ROOT Hips
{
	OFFSET 0.000000 0.000000 0.000000
	CHANNELS 6 Xposition Yposition Zposition Zrotation Yrotation Xrotation 
	JOINT LHipJoint
	{
		OFFSET 0.000000 0.000000 0.000000
		CHANNELS 3 Zrotation Yrotation Xrotation
		JOINT LeftUpLeg
		{
			OFFSET 1.363060 -1.794630 0.839290
			CHANNELS 3 Zrotation Yrotation Xrotation
			JOINT LeftLeg
			{
				OFFSET 2.448110 -6.726130 0.000000
				CHANNELS 3 Zrotation Yrotation Xrotation
				JOINT LeftFoot
				{
					OFFSET 2.562200 -7.039590 0.000000
					CHANNELS 3 Zrotation Yrotation Xrotation
					JOINT LeftToeBase
					{
						OFFSET 0.157640 -0.433110 2.322550
						CHANNELS 3 Zrotation Yrotation Xrotation
						End Site
						{
							OFFSET 0.000000 0.000000 0.000000
						}
					}
				}
			}
		}
	}
	JOINT RHipJoint
	{
		OFFSET 0.000000 0.000000 0.000000
		CHANNELS 3 Zrotation Yrotation Xrotation
		JOINT RightUpLeg
		{
			OFFSET -1.305520 -1.794630 0.839290
			CHANNELS 3 Zrotation Yrotation Xrotation
			JOINT RightLeg
			{
				OFFSET -2.542530 -6.985550 0.000000
				CHANNELS 3 Zrotation Yrotation Xrotation
				JOINT RightFoot
				{
					OFFSET -2.568260 -7.056230 0.000000
					CHANNELS 3 Zrotation Yrotation Xrotation
					JOINT RightToeBase
					{
						OFFSET -0.164730 -0.452590 2.363150
						CHANNELS 3 Zrotation Yrotation Xrotation
						End Site
						{
							OFFSET 0.000000 0.000000 0.000000
						}
					}
				}
			}
		}
	}
}
MOTION
Frames: 11
Frame Time: 0.008333
-22.192345 16.535781 -0.136835 25.180354 87.403448 47.488214 -8.948237 -0.988278 3.979119 -5.091349 -8.866920 -52.547360 -1.563217 0.402836 19.502439 0.719860 5.016052 8.909720 2.056600 -0.000000 -30.693699 9.913370 -2.896804 -1.411013 6.983403 -4.553994 2.290640 2.078936 -0.104852 10.240340 -1.083669 -4.638762 -5.602407 -0.407700 -0.000000 -67.826701
-22.024793 16.549888 -0.160660 29.299365 87.568407 51.542431 -8.820319 -0.926508 3.999460 -5.377982 -9.238797 -52.446327 -1.513216 0.460492 20.714925 0.756759 5.188438 8.365943 2.056800 0.000000 -29.879700 10.166947 -3.007893 -1.486518 6.465094 -5.202688 1.719695 1.985417 -0.372775 12.016197 -0.982773 -4.352293 -4.199302 -0.516400 -0.000000 -70.471900
-21.857908 16.567579 -0.184319 33.596937 87.704164 55.749729 -8.674353 -0.844713 4.015265 -5.717601 -9.566757 -52.216424 -1.488890 0.500340 21.788380 0.792059 5.332071 7.601922 2.025900 0.000000 -29.304700 10.444076 -3.102706 -1.575429 5.917729 -5.945920 1.028135 1.869483 -0.648791 13.978535 -0.891031 -4.074692 -2.658280 -0.614300 0.000000 -72.881200
-21.692318 16.588503 -0.207832 37.844233 87.798257 59.885623 -8.520737 -0.742535 4.027398 -6.104368 -9.842968 -51.854381 -1.490128 0.524404 22.695989 0.824731 5.438094 6.672972 1.964400 0.000000 -28.937700 10.733356 -3.175926 -1.674410 5.350004 -6.761677 0.218586 1.727069 -0.926620 16.116339 -0.818500 -3.848091 -0.980872 -0.703700 0.000000 -74.945800
-21.528387 16.612237 -0.231399 41.792471 87.848056 63.707586 -8.372237 -0.624450 4.036510 -6.526758 -10.059991 -51.368743 -1.514468 0.535016 23.423549 0.853272 5.497353 5.641658 1.875300 0.000000 -28.735000 11.019528 -3.224774 -1.777705 4.782108 -7.614118 -0.701034 1.556543 -1.199208 18.406651 -0.776644 -3.726934 0.821242 -0.793200 -0.000000 -76.539800
-21.366634 16.638299 -0.254692 45.385355 87.853366 67.162231 -8.231695 -0.493786 4.041593 -6.983270 -10.221039 -50.762319 -1.559758 0.533017 23.958862 0.876634 5.511814 4.574960 1.767000 -0.000000 -28.644000 11.299157 -3.245583 -1.882375 4.219088 -8.480786 -1.718390 1.358536 -1.460521 20.826293 -0.773532 -3.750298 2.722525 -0.894600 -0.000001 -77.545700
-21.207131 16.666206 -0.278012 48.468498 87.827643 70.103645 -8.109412 -0.358936 4.042814 -7.452098 -10.321088 -50.061748 -1.620206 0.520992 24.314568 0.892744 5.474459 3.529554 1.645300 -0.000000 -28.613601 11.557293 -3.239166 -1.981212 3.697778 -9.314468 -2.816554 1.138626 -1.703655 23.338141 -0.817319 -3.971690 4.683365 -1.029500 0.000000 -77.840100
-21.050478 16.695456 -0.301127 51.109784 87.779948 72.601055 -8.003871 -0.223117 4.039250 -7.925619 -10.367703 -49.280979 -1.691614 0.500230 24.501913 0.900972 5.392424 2.554908 1.519700 0.000000 -28.596101 11.793369 -3.203735 -2.072186 3.228934 -10.092990 -3.976735 0.904581 -1.924062 25.912821 -0.909058 -4.410220 6.646020 -1.218100 -0.000001 -77.348000
-20.896538 16.725649 -0.324122 53.351940 87.725074 74.701303 -7.917035 -0.090954 4.030768 -8.385779 -10.364871 -48.445192 -1.768395 0.473074 24.547089 0.900785 5.269586 1.683004 1.396600 -0.000000 -28.555400 12.001835 -3.140967 -2.152559 2.836381 -10.789071 -5.179800 0.667096 -2.118734 28.516785 -1.046275 -5.076895 8.540623 -1.480900 -0.000000 -76.054001
-20.745642 16.756470 -0.346447 55.375319 87.662507 76.580952 -7.839926 0.039516 4.016505 -8.836358 -10.331756 -47.557429 -1.848000 0.440411 24.464046 0.894299 5.127321 0.935003 1.284400 0.000000 -28.465700 12.190507 -3.048625 -2.225455 2.506762 -11.402429 -6.405609 0.435696 -2.287922 31.125593 -1.219718 -5.942588 10.287291 -1.824100 0.000000 -74.043000
-20.597746 16.787579 -0.368513 57.210705 87.608331 78.274453 -7.777654 0.163282 3.997267 -9.254040 -10.270453 -46.646928 -1.925000 0.405287 24.291577 0.881874 4.966916 0.307903 1.183400 0.000000 -28.320300 12.350842 -2.934227 -2.289323 2.266358 -11.913347 -7.639178 0.220571 -2.433856 33.708155 -1.419679 -6.984866 11.808790 -2.248900 -0.000001 -71.478300
